 solid PRO2STL version 1.0
facet normal 0.0 0.0 -1.0
outer loop
vertex 2000.0 0.0 0.0
vertex 0.0 -2000.0 0.0
vertex 0.0 0.0 0.0
endloop
endfacet
facet normal 0.0 0.0 -1.0
outer loop
vertex 0.0 -2000.0 0.0
vertex 2000.0 0.0 0.0
vertex 2000.0 -2000.0 0.0
endloop
endfacet
facet normal -0.0 -1.0 -0.0
outer loop
vertex 2000.0 -2000.0 2000.0
vertex 0.0 -2000.0 0.0
vertex 2000.0 -2000.0 0.0
endloop
endfacet
facet normal -0.0 -1.0 -0.0
outer loop
vertex 0.0 -2000.0 0.0
vertex 2000.0 -2000.0 2000.0
vertex 0.0 -2000.0 2000.0
endloop
endfacet
facet normal 1.0 0.0 0.0
outer loop
vertex 2000.0 0.0 0.0
vertex 2000.0 -2000.0 2000.0
vertex 2000.0 -2000.0 0.0
endloop
endfacet
facet normal 1.0 0.0 0.0
outer loop
vertex 2000.0 -2000.0 2000.0
vertex 2000.0 0.0 0.0
vertex 2000.0 0.0 2000.0
endloop
endfacet
facet normal -0.0 -0.0 1.0
outer loop
vertex 2000.0 -2000.0 2000.0
vertex 0.0 0.0 2000.0
vertex 0.0 -2000.0 2000.0
endloop
endfacet
facet normal -0.0 -0.0 1.0
outer loop
vertex 0.0 0.0 2000.0
vertex 2000.0 -2000.0 2000.0
vertex 2000.0 0.0 2000.0
endloop
endfacet
facet normal -1.0 0.0 0.0
outer loop
vertex 0.0 0.0 2000.0
vertex 0.0 -2000.0 0.0
vertex 0.0 -2000.0 2000.0
endloop
endfacet
facet normal -1.0 0.0 0.0
outer loop
vertex 0.0 -2000.0 0.0
vertex 0.0 0.0 2000.0
vertex 0.0 0.0 0.0
endloop
endfacet
facet normal -0.0 1.0 0.0
outer loop
vertex 0.0 0.0 2000.0
vertex 2000.0 0.0 0.0
vertex 0.0 0.0 0.0
endloop
endfacet
facet normal -0.0 1.0 0.0
outer loop
vertex 2000.0 0.0 0.0
vertex 0.0 0.0 2000.0
vertex 2000.0 0.0 2000.0
endloop
endfacet
endsolid PRO2STL version 1.0
