<?xml version="1.0" encoding="UTF-8"?>
<svg width="148px" height="38px" viewBox="0 0 148 38" version="1.1" xmlns="http://www.w3.org/2000/svg" xmlns:xlink="http://www.w3.org/1999/xlink">
    <title>Icons / Logo / Dark</title>
    <g id="Icons-/-Logo-/-Dark" stroke="none" stroke-width="1" fill="none" fill-rule="evenodd">
        <polygon id="Fill-1" fill="#1F4492" points="22.0191285 0 22.0191285 13.1619543 7.529679 0 0 0 0 24 7.98445813 24 7.98445813 11.2287945 22.411501 24 30 24 30 0"/>
        <polygon id="Fill-2" fill="#1F4492" points="124 0 124.00037 24 144.392672 24 148 18.3346741 132.235751 18.3346741 132.235751 0"/>
        <polygon id="Fill-3" fill="#1F4492" points="64 0 78.2356183 24 83 15.9816633 73.6073028 0"/>
        <polygon id="Fill-4" fill="#E1051E" points="80 0 86.4760498 10 93 0"/>
        <polygon id="Fill-5" fill="#1F4492" points="101.816098 0 87 24 96.0107249 24 104.029723 10.7578375 107.220213 16.7425766 103.719446 16.7425766 100.414776 22.0547735 110.762665 22.0547735 111.982751 24 121 24 106.023689 0"/>
        <polygon id="Fill-6" fill="#1F4492" points="47.8164606 0 33 24 42.0114499 24 50.0297228 10.7578375 53.2205757 16.7425766 49.7198081 16.7425766 46.4151386 22.0547735 56.7630277 22.0547735 57.9834755 24 67 24 52.0240512 0"/>
        <path d="M50.7762078,38 C52.4813127,38 54.3053783,37.5097765 55.8122151,36.5544693 L55.8122151,32.896648 L51.9261623,32.896648 L50.6175934,34.8449721 L52.8910665,34.8449721 L52.8910665,35.2472067 C52.4020055,35.4986034 51.7146764,35.674581 50.7233364,35.674581 C49.0314494,35.674581 48.1722881,34.7067039 48.1722881,33.4874302 C48.1722881,32.2681564 49.0314494,31.325419 50.7233364,31.325419 C51.556062,31.325419 52.2169553,31.6019553 52.6531449,32.1801676 L55.4817685,31.4636872 C54.6754786,29.8924581 52.9571559,29 50.7233364,29 C47.3924339,29 45,30.8226257 45,33.4874302 C45,36.4790503 47.7228806,38 50.7762078,38 Z M61.0993619,37.8994413 L61.0993619,31.2374302 L63.2803099,31.2374302 C64.0337284,31.2374302 64.4038286,31.7653631 64.4038286,32.2807263 C64.4038286,32.8086592 64.0337284,33.3365922 63.2803099,33.3365922 L61.8924339,33.3365922 L61.8924339,35.4231844 L63.8486782,37.8994413 L67.6950775,37.8994413 L65.3290793,35.2094972 C66.7301732,34.8198324 67.642206,33.4874302 67.642206,32.2807263 C67.642206,30.646648 66.4393801,29.1005587 63.7429353,29.1005587 L57.9270738,29.1005587 L57.9270738,37.8994413 L61.0993619,37.8994413 Z M74.4097539,38 C77.8199635,38 80.1463081,36.1522346 80.1463081,33.4874302 C80.1463081,30.8226257 77.7538742,29 74.4097539,29 C71.0788514,29 68.6864175,30.8226257 68.6864175,33.4874302 C68.6864175,36.1522346 71.0127621,38 74.4097539,38 Z M74.4097539,35.6620112 C72.9161349,35.6620112 71.9247949,34.7946927 71.9247949,33.4874302 C71.9247949,32.1927374 72.9161349,31.325419 74.4097539,31.325419 C75.9033728,31.325419 76.9079307,32.1927374 76.9079307,33.4874302 C76.9079307,34.7946927 75.9033728,35.6620112 74.4097539,35.6620112 Z M86.5966272,38 C89.0683683,38 91.381495,36.7807263 91.381495,34.2416201 L91.381495,29.1005587 L88.2092069,29.1005587 L88.2092069,34.027933 C88.2092069,34.9958101 87.6672744,35.674581 86.5966272,35.674581 C85.5259799,35.674581 84.9708295,34.9958101 84.9708295,34.027933 L84.9708295,29.1005587 L81.7985415,29.1005587 L81.7985415,34.2416201 C81.7985415,36.7807263 84.1116682,38 86.5966272,38 Z M96.9329991,37.8994413 L96.9329991,31.2374302 L98.6248861,31.2374302 C99.3915223,31.2374302 99.7616226,31.7653631 99.7616226,32.2807263 C99.7616226,32.8086592 99.3915223,33.3365922 98.6248861,33.3365922 L97.7260711,33.3365922 L97.7260711,35.4231844 L98.7702826,35.4231844 C101.585688,35.4231844 103,33.8393855 103,32.2555866 C103,30.6843575 101.585688,29.1005587 98.7702826,29.1005587 L93.760711,29.1005587 L93.760711,37.8994413 L96.9329991,37.8994413 Z" id="GROUP" fill="#1F4492"/>
    </g>
</svg>